<?xml version="1.0" encoding="UTF-8"?>
<svg version="1.1" xmlns="http://www.w3.org/2000/svg" width="1080" height="1080">
<path d="M0 0 C356.4 0 712.8 0 1080 0 C1080 356.4 1080 712.8 1080 1080 C723.6 1080 367.2 1080 0 1080 C0 723.6 0 367.2 0 0 Z " fill="#000000" transform="translate(0,0)"/>
<path d="M0 0 C18.81 0 37.62 0 57 0 C56.39703361 4.82373116 55.78780485 9.58662366 55 14.375 C54.835 15.39335937 54.67 16.41171875 54.5 17.4609375 C54 20 54 20 53 22 C51.97812387 29.93633266 51.83926205 37.92823943 51.79467773 45.91894531 C51.78464501 47.06029308 51.77461229 48.20164085 51.76427555 49.37757492 C51.73319703 53.02773848 51.70824745 56.67791302 51.68359375 60.328125 C51.66516196 62.59944996 51.64632383 64.87077166 51.6270752 67.14208984 C51.55897163 75.5113547 51.4986993 83.88068181 51.4375 92.25 C51.293125 110.9775 51.14875 129.705 51 149 C113.865 148.505 113.865 148.505 178 148 C178.020625 129.6025 178.04125 111.205 178.0625 92.25 C178.071604 86.43922852 178.08070801 80.62845703 178.09008789 74.64160156 C178.09343216 69.43649322 178.09343216 69.43649322 178.09544373 64.23138428 C178.0969801 61.91155811 178.10049879 59.59173274 178.10557556 57.27191162 C178.11287808 53.7597108 178.11390656 50.24755882 178.11352539 46.73535156 C178.1171235 45.7004874 178.12072161 44.66562325 178.12442875 43.59939957 C178.1223625 42.18051752 178.1223625 42.18051752 178.12025452 40.73297119 C178.12117631 39.91073185 178.1220981 39.08849251 178.12304783 38.24133682 C178.0016031 36.02920069 177.57511839 34.13244604 177 32 C176.8734041 30.12638073 176.77233088 28.25097426 176.6875 26.375 C176.23681942 19.6682619 174.87381105 13.34013332 173.28393555 6.82958984 C172.81844291 4.89503685 172.40412286 2.94829757 172 1 C173 0 173 0 175.24623108 -0.12025452 C176.23884445 -0.11803391 177.23145782 -0.11581329 178.25415039 -0.11352539 C179.37523697 -0.11344986 180.49632355 -0.11337433 181.65138245 -0.11329651 C183.48103798 -0.10555458 183.48103798 -0.10555458 185.34765625 -0.09765625 C187.2100016 -0.09553383 187.2100016 -0.09553383 189.10997009 -0.09336853 C192.41605491 -0.08870591 195.72207146 -0.07971497 199.02813721 -0.06866455 C202.3996115 -0.05844827 205.77109283 -0.05387045 209.14257812 -0.04882812 C215.76173775 -0.03777395 222.38086493 -0.02101736 229 0 C230.57992546 3.15985092 229.115455 5.49618344 228.125 8.8125 C226.34364036 15.02202596 225.45782928 20.91157888 225.17578125 27.390625 C225 30 225 30 224 33 C223.90364222 35.93527631 223.86535227 38.8466537 223.87301636 41.78201294 C223.87145637 42.69041927 223.86989638 43.5988256 223.86828911 44.5347594 C223.86428748 47.59106033 223.86746553 50.64731195 223.87060547 53.70361328 C223.86925108 55.88959787 223.86747093 58.07558223 223.86529541 60.26156616 C223.86072613 66.20755269 223.86250844 72.15352192 223.8656745 78.09950876 C223.86820005 84.31038873 223.86586007 90.52126719 223.86428833 96.73214722 C223.86235074 107.83008482 223.86546457 118.92801559 223.87054767 130.02595185 C223.87501774 140.09754603 223.87423769 150.16912868 223.86962891 160.24072266 C223.8642833 171.92801914 223.86228206 183.6153089 223.86524117 195.30260646 C223.86680413 201.49256408 223.86699714 207.68251375 223.86370468 213.87247086 C223.86082731 219.68853932 223.86279917 225.50458592 223.86859894 231.32065201 C223.86992714 233.46171024 223.86953141 235.6027703 223.86733627 237.74382782 C223.86462719 240.65322864 223.86800288 243.56255814 223.87301636 246.47195435 C223.87078564 247.33078567 223.86855491 248.18961699 223.86625659 249.0744735 C223.51315709 252.84302846 223.51315709 252.84302846 225 256 C225.23857539 259.2491696 225.39468641 262.49096203 225.51757812 265.74609375 C225.74800543 270.43289811 226.57375521 274.49606908 228 279 C228.41360744 280.62056716 228.81244875 282.24507804 229.1875 283.875 C229.36667969 284.63554688 229.54585937 285.39609375 229.73046875 286.1796875 C229.81941406 286.78039062 229.90835938 287.38109375 230 288 C229 289 229 289 226.71580505 289.12025452 C225.20023766 289.1169236 225.20023766 289.1169236 223.65405273 289.11352539 C222.5129454 289.11344986 221.37183807 289.11337433 220.19615173 289.11329651 C218.9545076 289.10813522 217.71286346 289.10297394 216.43359375 289.09765625 C214.53795433 289.09553383 214.53795433 289.09553383 212.60401917 289.09336853 C209.23875111 289.08870582 205.8735501 289.0797148 202.50830078 289.06866455 C199.0765033 289.05844846 195.64469891 289.05387049 192.21289062 289.04882812 C185.47524176 289.0377738 178.73762475 289.0210171 172 289 C172.31050032 287.43215335 172.62187054 285.86447897 172.93359375 284.296875 C173.10689209 283.42385742 173.28019043 282.55083984 173.45874023 281.65136719 C173.96391677 279.17675414 174.50654515 276.71361085 175.0625 274.25 C176.16557535 268.83803657 176.46058123 263.41357682 176.75390625 257.90625 C177 255 177 255 178 253 C178.09841216 250.25911139 178.13628946 247.54363599 178.12939453 244.80249023 C178.13114685 243.95524384 178.13289917 243.10799744 178.13470459 242.2350769 C178.13911665 239.42622853 178.13618763 236.61744279 178.1328125 233.80859375 C178.13348566 231.86328621 178.13445579 229.91797876 178.13571167 227.97267151 C178.13718772 223.89298706 178.13503683 219.81332449 178.13037109 215.73364258 C178.12467008 210.49197114 178.12795576 205.25035086 178.13394356 200.0086813 C178.13754845 195.99139517 178.13641098 191.97412128 178.13381577 187.95683479 C178.13314649 186.02343807 178.13397492 184.09004026 178.13629532 182.15664482 C178.13882108 179.46043814 178.13498251 176.76431561 178.12939453 174.06811523 C178.13243088 172.85794991 178.13243088 172.85794991 178.13552856 171.62333679 C178.46086608 168.01414086 178.46086608 168.01414086 177 165 C175.3804366 164.90396978 173.75666917 164.87812145 172.13426208 164.87974548 C170.5545462 164.87768349 170.5545462 164.87768349 168.94291687 164.87557983 C167.77766983 164.87917511 166.61242279 164.88277039 165.41186523 164.88647461 C164.19252289 164.88632858 162.97318054 164.88618256 161.71688843 164.8860321 C158.36372489 164.88661107 155.01062226 164.89164032 151.65746951 164.89860606 C148.15674438 164.90484017 144.65601852 164.90544344 141.1552887 164.90663147 C134.52190344 164.90974462 127.88853459 164.91795778 121.25515658 164.92798096 C113.70509793 164.93914261 106.15503851 164.94465268 98.60497367 164.94967639 C83.06997294 164.96014041 67.53498858 164.97773953 52 165 C51.92987487 176.35454663 51.87687619 187.70904007 51.84456348 199.06376076 C51.82903952 204.33864728 51.8080502 209.61338352 51.77368164 214.88818359 C51.74060672 219.99757699 51.72304786 225.10682768 51.71536827 230.21632004 C51.70990965 232.14633805 51.69925679 234.07635004 51.68280983 236.00630569 C51.4837019 258.4390174 51.4837019 258.4390174 56.10041809 280.25064087 C57 283 57 283 57 289 C38.19 289 19.38 289 0 289 C0 284 0 284 1 283 C4.81852961 267.30470536 5.5810872 251.5303021 5.50170898 235.46362305 C5.50550585 233.22492638 5.51101701 230.98623208 5.51808167 228.74754333 C5.53187129 222.74777731 5.52098597 216.74830335 5.50437045 210.74855399 C5.49036688 204.42610261 5.49699692 198.10366558 5.50050354 191.78120422 C5.50319271 181.17627564 5.48992884 170.57144811 5.46655273 159.96655273 C5.44261405 149.10485613 5.43556434 138.24331006 5.44604492 127.3815918 C5.45873098 114.21103506 5.45611464 101.04056459 5.44038582 87.87000465 C5.43466761 82.87010888 5.43467549 77.87026348 5.43945122 72.87036705 C5.44426448 66.97427563 5.43394133 61.07838931 5.41249657 55.18233681 C5.40698855 53.03431515 5.40640738 50.88627353 5.41144943 48.73825073 C5.738594 27.63311832 5.738594 27.63311832 0.90001583 7.28863049 C0 5 0 5 0 0 Z " fill="#FDFDFD" transform="translate(517,291)"/>
<path d="M0 0 C24.49488304 -0.02332612 48.98976443 -0.04097776 73.48465633 -0.05181217 C84.8572063 -0.05697574 96.22974938 -0.0640196 107.60229492 -0.07543945 C117.51076864 -0.08538443 127.41923737 -0.09185298 137.32771593 -0.09408849 C142.57762905 -0.09539592 147.82752789 -0.09848376 153.07743645 -0.10573006 C158.01276996 -0.11248734 162.94808325 -0.11461756 167.88342094 -0.11310768 C169.7003541 -0.11338414 171.5172879 -0.11539099 173.33421707 -0.11920547 C175.80368289 -0.12413818 178.27307106 -0.12299987 180.74253845 -0.12025452 C181.83541661 -0.12462378 181.83541661 -0.12462378 182.95037311 -0.12908131 C187.88587879 -0.11412121 187.88587879 -0.11412121 189 1 C189.21413131 4.02460477 189.37767876 7.03391676 189.5 10.0625 C189.78755242 17.09489205 189.78755242 17.09489205 190.52734375 24.08984375 C191.03254916 28.26927031 191.11306723 32.29902993 191.0625 36.5 C191.05798828 37.22703125 191.05347656 37.9540625 191.04882812 38.703125 C191.03721193 40.46878681 191.01928441 42.2344053 191 44 C189.68 44 188.36 44 187 44 C185.39453125 41.875 185.39453125 41.875 183.8125 39 C176.58617761 27.03813017 166.2611715 21.17867326 153.03125 17.578125 C145.66919093 16.17402095 138.26483937 15.85234694 130.78662109 15.88647461 C129.91314341 15.88635407 129.03966572 15.88623354 128.13971901 15.88610935 C125.35093133 15.88684751 122.56221301 15.89442499 119.7734375 15.90234375 C118.03621452 15.90381658 116.29899109 15.90483519 114.56176758 15.90539551 C108.16617156 15.91060893 101.77058508 15.92457015 95.375 15.9375 C73.904375 15.9684375 73.904375 15.9684375 52 16 C51.67 59.89 51.34 103.78 51 149 C96.45354876 151.38642839 96.45354876 151.38642839 134.7890625 132.203125 C137.28312636 129.42648247 138.99268056 127.01520191 140.625 123.625 C142 121 142 121 144.125 120.0625 C144.74375 120.041875 145.3625 120.02125 146 120 C147 121 147 121 147.12025452 123.81568909 C147.11803391 125.07477585 147.11581329 126.33386261 147.11352539 127.63110352 C147.11367142 128.32375305 147.11381744 129.01640259 147.1139679 129.7300415 C147.11326874 132.02969446 147.10547628 134.32926737 147.09765625 136.62890625 C147.09579208 138.21931412 147.09436817 139.80972257 147.09336853 141.40013123 C147.08954329 145.5939593 147.07971295 149.78775295 147.06866455 153.98156738 C147.05845057 158.25788914 147.05387094 162.53421644 147.04882812 166.81054688 C147.03809069 175.20704708 147.02101419 183.60351926 147 192 C145.68 192.33 144.36 192.66 143 193 C142.57589844 192.35933594 142.15179688 191.71867188 141.71484375 191.05859375 C132.02462303 176.76818034 121.6103773 170.50333483 105 166 C87.46663742 163.80832968 69.66981104 165 52 165 C52 200.64 52 236.28 52 273 C67.9225 273.020625 83.845 273.04125 100.25 273.0625 C105.25704102 273.071604 110.26408203 273.08070801 115.42285156 273.09008789 C119.95455898 273.0934346 119.95455898 273.0934346 124.48626709 273.09544373 C126.48740868 273.09696818 128.48854942 273.10046188 130.48968506 273.10557556 C160.76749823 273.65873169 160.76749823 273.65873169 187 260 C190.62939265 256.38303678 194.01705669 252.80945001 196.47265625 248.2890625 C198 246 198 246 200.09545898 245.35693359 C200.72395752 245.23914551 201.35245605 245.12135742 202 245 C201.88053187 249.51674032 201.75622296 254.0333155 201.62768555 258.54980469 C201.58473143 260.0819957 201.54303423 261.61422254 201.50268555 263.14648438 C200.8686201 287.1313799 200.8686201 287.1313799 199 289 C196.43281803 289.09777019 193.89256084 289.12995016 191.32493591 289.12025452 C190.1047139 289.12153615 190.1047139 289.12153615 188.85984093 289.12284368 C186.11283759 289.12450097 183.36589427 289.11897306 180.61889648 289.11352539 C178.65818279 289.11324355 176.697469 289.1134012 174.73675537 289.1139679 C169.39606666 289.11425598 164.05540019 289.10835752 158.71471667 289.10139394 C153.13997684 289.09516218 147.56523655 289.09455674 141.99049377 289.09336853 C131.42593909 289.09025469 120.86139469 289.08204059 110.29684454 289.07201904 C98.2728677 289.06085955 86.24889039 289.05534787 74.22490966 289.05032361 C49.48326739 289.03985801 24.74163427 289.02225755 0 289 C0.53902891 284.61204201 1.083756 280.27677735 1.9375 275.9375 C4.58485717 261.42808934 5.28508409 247.58600312 5.24291992 232.8581543 C5.24399489 230.66216984 5.24593675 228.46618566 5.24867249 226.27020264 C5.25348598 220.35169539 5.24591182 214.43326448 5.23571944 208.51476645 C5.22689323 202.31109955 5.22869719 196.10743472 5.2290802 189.90376282 C5.22814639 179.50329317 5.21949596 169.10285286 5.20581055 158.70239258 C5.19178347 148.00251672 5.18464182 137.30266834 5.18530273 126.6027832 C5.18534269 125.94175485 5.18538265 125.28072649 5.18542381 124.59966698 C5.18546417 123.93976589 5.18550452 123.2798648 5.1855461 122.5999667 C5.1861554 111.01406134 5.18106237 99.42816641 5.17275429 87.84226418 C5.169219 82.91206595 5.16739071 77.98187141 5.16686058 73.05167198 C5.16585937 67.26088152 5.15978103 61.4701181 5.14969444 55.67933655 C5.14676406 53.5499774 5.14554515 51.42061513 5.14612198 49.29125404 C5.14660969 46.3959784 5.14098677 43.50077952 5.13371277 40.60551453 C5.13526137 39.75389054 5.13680997 38.90226654 5.1384055 38.02483577 C5.22961054 33.87959636 5.22961054 33.87959636 4 30 C3.8421051 27.87719073 3.72357436 25.75138969 3.625 23.625 C3.25101212 17.66571772 2.2621005 12.25518358 0.62109375 6.5234375 C0 4 0 4 0 0 Z " fill="#FCFCFC" transform="translate(312,291)"/>
<path d="M0 0 C3.84349227 0.01827681 7.68674212 0.02050873 11.53027344 0.02026367 C29.17225243 0.04439352 46.62141605 0.28587684 64.10058594 2.89331055 C65.26952393 3.06483643 66.43846191 3.2363623 67.64282227 3.41308594 C87.31457124 6.39745011 106.90767503 10.04517359 125.85058594 16.20581055 C128.0372838 16.87510358 130.22475537 17.5418753 132.41308594 18.20581055 C133.44304688 18.52678711 134.47300781 18.84776367 135.53417969 19.1784668 C137.96038469 19.93004738 140.38875647 20.66576435 142.82324219 21.3894043 C149.68047328 23.44730251 156.27299026 25.67539411 162.73730469 28.7878418 C165.92599282 30.24015521 169.15012972 31.49554328 172.42138672 32.74633789 C206.92271301 46.03168106 238.66329247 65.6813234 267.85058594 88.20581055 C268.47481445 88.684375 269.09904297 89.16293945 269.7421875 89.65600586 C276.51048259 94.85176143 283.10090193 100.14610241 289.37402344 105.94018555 C291.38343537 107.77844883 293.42197432 109.5568816 295.48730469 111.33081055 C300.63390014 115.82417503 305.45695764 120.6281654 310.28808594 125.45581055 C311.17818359 126.33366211 312.06828125 127.21151367 312.98535156 128.1159668 C318.29178691 133.41077373 323.19082273 138.8707927 327.8503418 144.74414062 C329.80145198 147.14534213 331.84823919 149.39807422 333.97558594 151.64331055 C370.65060327 192.13202119 401.72897022 248.05666659 414.88574219 301.47924805 C415.60527028 304.25831607 416.39626364 306.89606262 417.32324219 309.60424805 C429.57163591 345.67854692 432.63597991 385.36593176 431.85058594 423.20581055 C429.54058594 423.20581055 427.23058594 423.20581055 424.85058594 423.20581055 C424.8307666 422.62428223 424.81094727 422.04275391 424.79052734 421.44360352 C421.78299605 336.51823098 397.99274218 253.59581298 347.85058594 184.20581055 C347.30547363 183.44574707 346.76036133 182.68568359 346.19873047 181.90258789 C336.0290344 167.75578893 325.2029268 154.55854168 313.33349609 141.80639648 C311.7297491 140.07538475 310.13927602 138.33274814 308.54980469 136.58862305 C301.14941977 128.48352272 301.14941977 128.48352272 293.04980469 121.0925293 C290.63185217 119.01815795 288.33166642 116.84384332 286.02001953 114.65258789 C279.16493525 108.17056942 272.05450594 102.21636502 264.54882812 96.50561523 C262.88968274 95.23573455 261.24714744 93.94717925 259.60839844 92.65112305 C242.87897465 79.47647836 224.66129917 68.56824343 205.99511719 58.38452148 C204.10314641 57.3446268 202.22505946 56.28459545 200.35058594 55.21362305 C155.64044901 30.2711624 103.5894776 15.51303456 52.85058594 10.20581055 C52.03783203 10.11557617 51.22507812 10.0253418 50.38769531 9.93237305 C7.50904374 5.24894837 -40.24545205 7.01705552 -82.22998047 17.71899414 C-84.12887359 18.20060097 -86.0356759 18.6506653 -87.94238281 19.1003418 C-156.55890304 35.53753064 -220.89736653 68.37929516 -272.54394531 116.71362305 C-274.06798411 118.13012626 -275.60470837 119.53065726 -277.14941406 120.92456055 C-287.81261976 130.56682102 -298.22608346 140.41124979 -307.15332031 151.71362305 C-309.01013574 154.03191707 -310.94855861 156.21114615 -312.96191406 158.39331055 C-348.30215823 198.0735847 -374.83989782 249.65112538 -390.14941406 300.20581055 C-390.39498047 301.00583496 -390.64054687 301.80585938 -390.89355469 302.63012695 C-399.54945043 331.04666571 -404.88066357 360.17901084 -406.91577148 389.81005859 C-407.14941406 392.20581055 -407.14941406 392.20581055 -407.66137695 394.90673828 C-408.29587738 399.19588502 -408.33080157 403.39892073 -408.35253906 407.72924805 C-408.35946274 408.65564087 -408.36638641 409.58203369 -408.3735199 410.53649902 C-408.39086572 413.55131227 -408.39712055 416.56594958 -408.39941406 419.58081055 C-408.40142319 421.12264008 -408.40142319 421.12264008 -408.4034729 422.69561768 C-408.39688863 446.02435542 -407.36143469 469.37995235 -402.14941406 492.20581055 C-401.77333014 493.95167116 -401.39842223 495.69778533 -401.02441406 497.4440918 C-390.19439609 547.29669247 -369.98743465 595.69918236 -340.14941406 637.20581055 C-339.60913574 637.96394043 -339.06885742 638.72207031 -338.51220703 639.50317383 C-330.59546264 650.58390399 -322.2572438 661.08527189 -313.14941406 671.20581055 C-312.47587891 671.96547119 -311.80234375 672.72513184 -311.10839844 673.5078125 C-305.67363285 679.61120668 -300.05559212 685.49270793 -294.27441406 691.26831055 C-293.39454834 692.14737061 -292.51468262 693.02643066 -291.6081543 693.93212891 C-286.49375976 698.99832348 -281.37399574 703.8186732 -275.68066406 708.22924805 C-273.30782839 710.08211047 -271.04731027 712.03004876 -268.78735352 714.01782227 C-235.97846818 742.66267892 -195.00351303 763.87633007 -154.14941406 778.20581055 C-153.4257666 778.46442871 -152.70211914 778.72304688 -151.95654297 778.98950195 C-142.33712654 782.42110094 -132.55642555 785.12147986 -122.65185547 787.58081055 C-121.01663234 787.98921749 -119.38336396 788.40555472 -117.75244141 788.83081055 C-91.38280471 795.68702322 -63.82541741 798.92851624 -36.60839844 799.07983398 C-34.03881006 799.21147692 -31.65659943 799.64130104 -29.14941406 800.20581055 C-29.14941406 802.51581055 -29.14941406 804.82581055 -29.14941406 807.20581055 C-48.6989212 807.98090114 -67.80125327 805.70328421 -87.14941406 803.20581055 C-88.58873291 803.02211914 -88.58873291 803.02211914 -90.05712891 802.8347168 C-95.13580709 802.1610252 -100.13801156 801.26738432 -105.14941406 800.20581055 C-106.61483643 799.89981934 -106.61483643 799.89981934 -108.10986328 799.58764648 C-138.08106526 793.18274406 -167.57297526 783.63164726 -195.14941406 770.20581055 C-196.23480469 769.67761719 -197.32019531 769.14942383 -198.43847656 768.60522461 C-220.29923452 757.84445496 -241.22380313 745.62505035 -260.41162109 730.56274414 C-262.10095799 729.24364686 -263.80641156 727.94954267 -265.52050781 726.6628418 C-283.94220527 712.79513061 -302.02656141 697.16197171 -317.05566406 679.6394043 C-318.70681144 677.72025353 -320.37438213 675.82098396 -322.05566406 673.9284668 C-334.74666032 659.5774343 -345.75705126 644.28609471 -356.14941406 628.20581055 C-356.84550781 627.13202148 -357.54160156 626.05823242 -358.25878906 624.9519043 C-374.09495798 599.85615727 -386.14512414 573.11899129 -396.07250977 545.20922852 C-396.76757556 543.27073399 -397.4761122 541.33699223 -398.20092773 539.40942383 C-400.75430006 532.60410223 -402.77551095 525.74339507 -404.58691406 518.70581055 C-404.88621826 517.54597656 -405.18552246 516.38614258 -405.49389648 515.19116211 C-411.46792517 491.47390094 -415.12989497 467.55331843 -416.27441406 443.14331055 C-416.31577484 442.28353607 -416.35713562 441.4237616 -416.39974976 440.53793335 C-417.43294252 418.8665329 -417.22223822 398.17290528 -414.56396484 376.59204102 C-414.17622097 373.42478098 -413.81390645 370.25568562 -413.45800781 367.0847168 C-412.02744544 354.7777488 -409.72485342 342.86003407 -406.77587891 330.83081055 C-406.18831034 328.36879294 -405.65308833 325.90254968 -405.13769531 323.42456055 C-392.37881312 263.5517372 -362.63027973 208.09458602 -325.14941406 160.20581055 C-324.48296875 159.34342773 -323.81652344 158.48104492 -323.12988281 157.5925293 C-318.6644821 151.89027625 -313.89269252 146.55446886 -308.95800781 141.26049805 C-306.88344687 139.0301503 -304.88530351 136.74580797 -302.89941406 134.4362793 C-298.71091012 129.630192 -294.22891988 125.13878973 -289.71191406 120.64331055 C-288.90431641 119.8318457 -288.09671875 119.02038086 -287.26464844 118.18432617 C-282.38892887 113.31646433 -277.38856329 108.67832439 -272.14941406 104.20581055 C-271.18519531 103.36018555 -270.22097656 102.51456055 -269.22753906 101.64331055 C-209.0872857 49.80972202 -133.79058306 15.22659499 -55.14941406 4.20581055 C-53.12739626 3.85847007 -51.10641242 3.50501175 -49.08691406 3.14331055 C-32.66688488 0.47104891 -16.6288583 -0.08163875 0 0 Z " fill="#F5F5F5" transform="translate(509.1494140625,33.794189453125)"/>
<path d="M0 0 C5.37412101 3.27521538 10.95351928 8.10148127 13.1171875 14.16796875 C14.6404464 21.93124438 14.98535836 29.94526834 11.0625 37 C6.76713452 43.08847795 1.00002759 47.97916126 -6.4375 49.4375 C-14.54748773 50.37573947 -20.71613414 49.17795225 -27.4375 44.4375 C-33.65991814 38.83615184 -37.44104916 32.73147142 -38 24.25 C-37.7615321 16.72270883 -34.75297953 9.77883122 -29.43359375 4.41796875 C-21.19041994 -2.01076832 -9.87916114 -4.51342068 0 0 Z " fill="#030303" transform="translate(817.4375,685.5625)"/>
<path d="M0 0 C0.05607422 1.25490234 0.05607422 1.25490234 0.11328125 2.53515625 C0.58604746 10.90589917 1.82677061 18.75873081 3.57958984 26.96142578 C4.35292765 30.71135068 5.02015378 34.48001585 5.6875 38.25 C5.88448486 39.34115112 5.88448486 39.34115112 6.08544922 40.4543457 C6.59602544 43.34749673 7 46.05555597 7 49 C4.04335481 50.4783226 1.25770263 50.06032783 -2 50 C-6.36275707 24.0298471 -6.36275707 24.0298471 -8 13 C-12.39072128 19.58608193 -14.58101932 27.50896305 -17 35 C-17.56095585 36.68801393 -18.12341871 38.37552792 -18.6875 40.0625 C-18.93886719 40.81660156 -19.19023438 41.57070313 -19.44921875 42.34765625 C-19.63097656 42.89292969 -19.81273437 43.43820312 -20 44 C-23.00045991 43.67294475 -24.58968687 43.40409969 -26.7734375 41.25341797 C-27.30195312 40.50721191 -27.83046875 39.76100586 -28.375 38.9921875 C-28.96796875 38.16976562 -29.5609375 37.34734375 -30.171875 36.5 C-30.77515625 35.63375 -31.3784375 34.7675 -32 33.875 C-32.60328125 33.03195312 -33.2065625 32.18890625 -33.828125 31.3203125 C-35.56481861 28.88894145 -37.28333494 26.44553413 -39 24 C-40.66281595 21.66389018 -42.33152448 19.33207374 -44 17 C-43.43920716 21.48228552 -42.84730441 25.95994567 -42.25 30.4375 C-42.09273437 31.69755859 -41.93546875 32.95761719 -41.7734375 34.25585938 C-40.24555106 46.12052666 -40.24555106 46.12052666 -34 56 C-38.455 56.495 -38.455 56.495 -43 57 C-43.14695312 55.26943359 -43.14695312 55.26943359 -43.296875 53.50390625 C-44.65804566 38.37209464 -46.10783585 22.72039189 -50 8 C-46.62311407 6.31155703 -44.75214759 6.35688343 -41 7 C-37.96400554 9.828746 -35.71896106 13.15375174 -33.375 16.5625 C-32.73304688 17.45775391 -32.09109375 18.35300781 -31.4296875 19.27539062 C-29.59870877 21.83613444 -27.79759546 24.4157636 -26 27 C-25.01541283 28.38581714 -24.02876399 29.77017443 -23.0390625 31.15234375 C-22.36617187 32.09207031 -21.69328125 33.03179688 -21 34 C-20.69819824 33.04109863 -20.39639648 32.08219727 -20.08544922 31.09423828 C-18.95788996 27.53404553 -17.79876394 23.9848072 -16.62988281 20.43798828 C-16.12870985 18.90237617 -15.63610902 17.36393853 -15.15234375 15.82275391 C-14.45474326 13.60558512 -13.72677644 11.40046054 -12.9921875 9.1953125 C-12.78254364 8.50567413 -12.57289978 7.81603577 -12.35690308 7.10549927 C-11.15240218 3.59509916 -10.4458049 2.220049 -7.06298828 0.55029297 C-4 0 -4 0 0 0 Z " fill="#F1F1F1" transform="translate(613,790)"/>
<path d="M0 0 C0.28955566 0.79676147 0.28955566 0.79676147 0.58496094 1.60961914 C4.14452976 10.96170021 8.82845963 19.7572445 13.38378906 28.65112305 C14.47447648 30.78440719 15.55788451 32.92126806 16.640625 35.05859375 C16.97805725 35.71170029 17.3154895 36.36480682 17.66314697 37.03770447 C19.10979062 39.89954814 20 41.7455 20 45 C14.25 48 14.25 48 12 48 C11.56844604 46.93120605 11.56844604 46.93120605 11.12817383 45.84082031 C7.91900894 38.0036751 4.38721377 30.36594108 0.6875 22.75 C-1.189375 18.8725 -3.06625 14.995 -5 11 C-5.33 22.88 -5.66 34.76 -6 47 C-11 48 -11 48 -13.38427734 46.72412109 C-14.1933252 46.08039551 -15.00237305 45.43666992 -15.8359375 44.7734375 C-17.18558594 43.71962891 -17.18558594 43.71962891 -18.5625 42.64453125 C-19.490625 41.89558594 -20.41875 41.14664063 -21.375 40.375 C-23.21553774 38.92370764 -25.05667133 37.47317059 -26.8984375 36.0234375 C-28.20312988 34.98654785 -28.20312988 34.98654785 -29.53417969 33.92871094 C-32.62201534 31.51347315 -35.78430391 29.24124273 -39 27 C-37.10621646 30.64690153 -35.20959487 34.29232006 -33.3125 37.9375 C-32.78205078 38.95908203 -32.25160156 39.98066406 -31.70507812 41.03320312 C-30.14595244 44.02710705 -28.57710529 47.01553065 -27 50 C-26.53424561 50.88179932 -26.06849121 51.76359863 -25.58862305 52.67211914 C-25.15718994 53.47125732 -24.72575684 54.27039551 -24.28125 55.09375 C-23.71954102 56.13885742 -23.71954102 56.13885742 -23.14648438 57.20507812 C-21.52705669 59.74043424 -19.49410826 61.36101457 -17 63 C-22.75 66 -22.75 66 -25 66 C-25.32613281 64.86175781 -25.65226563 63.72351563 -25.98828125 62.55078125 C-28.84517491 53.97338212 -33.29231557 45.97353382 -37.32885742 37.90649414 C-38.4277157 35.70521681 -39.51698998 33.49939231 -40.60546875 31.29296875 C-40.94603806 30.62001266 -41.28660736 29.94705658 -41.63749695 29.25370789 C-43.32136662 25.83157091 -44 23.89835778 -44 20 C-41.65299698 18.52225735 -40.41332133 17.95579723 -37.61669922 18.25488281 C-34.7412218 19.07368829 -33.14052754 20.11879299 -30.8203125 21.984375 C-30.05589844 22.59023438 -29.29148437 23.19609375 -28.50390625 23.8203125 C-27.71886719 24.45710937 -26.93382812 25.09390625 -26.125 25.75 C-24.56612309 26.99606745 -23.00624125 28.24087882 -21.4453125 29.484375 C-20.75969238 30.03834961 -20.07407227 30.59232422 -19.36767578 31.16308594 C-16.31335067 33.53272319 -13.14569643 35.75307398 -10 38 C-9.67 26.45 -9.34 14.9 -9 3 C-3 0 -3 0 0 0 Z " fill="#F0F0F0" transform="translate(711,753)"/>
<path d="M0 0 C2.24573001 2.1425892 3.92989133 4.63983183 5.6875 7.1875 C6.74789809 8.66333543 7.80910779 10.13858802 8.87109375 11.61328125 C9.39687012 12.35400879 9.92264648 13.09473633 10.46435547 13.85791016 C12.6577398 16.91748951 14.94423586 19.89971832 17.25 22.875 C18.44496094 24.42960938 18.44496094 24.42960938 19.6640625 26.015625 C22.57108123 29.72960879 25.56696254 33.36622817 28.6015625 36.9765625 C30 39 30 39 30 42 C25.65076862 44.05380371 25.65076862 44.05380371 23.015625 43.8359375 C20.23937213 42.6845458 19.51004919 41.12712159 18 38.5625 C16.02191453 35.2137303 14.73224628 33.30146595 11 32 C6.01139669 31.2920464 2.06001413 31.48892176 -2.5 33.6875 C-6.0567776 36.97751928 -6.82752755 39.30977002 -7.3125 44.0625 C-6.96226209 47.35473631 -6.1126561 48.53523454 -4 51 C-4 51.66 -4 52.32 -4 53 C-6.64 53.66 -9.28 54.32 -12 55 C-11.73661986 49.21982188 -11.46997317 43.43980656 -11.20043945 37.65991211 C-11.10939562 35.69803844 -11.01920856 33.73612479 -10.92993164 31.77416992 C-10.67990073 26.28606119 -10.41333162 20.79933353 -10.11895752 15.31341553 C-10.01524033 13.29638493 -9.9314397 11.27834981 -9.85107422 9.26025391 C-9.79580566 8.27331543 -9.74053711 7.28637695 -9.68359375 6.26953125 C-9.6467749 5.46749268 -9.60995605 4.6654541 -9.57202148 3.83911133 C-9 2 -9 2 -7.10693359 0.76904297 C-4.31883527 -0.24862907 -2.94587218 -0.6492402 0 0 Z " fill="#F3F3F3" transform="translate(644,782)"/>
<path d="M0 0 C17.6942504 -0.10354036 35.33568845 -0.20194587 53 1 C51.125 7.875 51.125 7.875 50 9 C46.6623687 9.16971007 43.33179958 9.29724267 39.99023438 9.34179688 C36.50468729 9.4789227 34.40547454 9.68896008 31.6015625 11.83984375 C28.524974 15.98948628 26.65580825 19.91295352 27 25.125 C27.77010771 29.34420712 29.47947474 31.47440579 33 34 C36.68441504 34.88527109 36.68441504 34.88527109 40 35 C39.34 37.31 38.68 39.62 38 42 C34.1375761 40.40207049 31.41782198 37.77850487 28.4375 34.9375 C24.58430108 31.32951001 20.68643989 27.86407064 16.5625 24.5625 C12.23635544 21.04077763 7.94697596 17.48705438 3.75 13.8125 C3.16420166 13.32531494 2.57840332 12.83812988 1.97485352 12.33618164 C0.359375 10.89453125 0.359375 10.89453125 -2 8 C-1.92273498 4.79736475 -1.4194883 2.83897659 0 0 Z " fill="#F0F0F0" transform="translate(866,570)"/>
<path d="M0 0 C1.05078125 1.625 1.05078125 1.625 2.3125 4 C6.56105223 11.35648329 12.09414435 17.66264552 17.50244141 24.17773438 C19.9543693 27.16129971 22.29960672 30.2240928 24.6328125 33.30078125 C25.99198003 34.99003232 27.43817419 36.49824441 29 38 C27.61122646 41.35620271 26.08322035 43.07298728 23 45 C22.34 45 21.68 45 21 45 C20.484375 44.030625 19.96875 43.06125 19.4375 42.0625 C16.76340474 37.35145853 13.39522797 33.20588633 10 29 C5.31374726 31.66704151 1.34110907 34.91556891 -2.79296875 38.35546875 C-5 40 -5 40 -7 40 C-1.69686754 49.19335171 -1.69686754 49.19335171 6 56 C4.76210371 59.71368887 3.14775123 60.77354181 0 63 C-0.66 63 -1.32 63 -2 63 C-3.06658044 61.4607305 -4.05130906 59.864599 -5 58.25 C-8.37180962 52.79087966 -12.20329368 48.00732849 -16.3671875 43.13671875 C-19.62767977 39.30106099 -22.66121879 35.29640144 -25.6887207 31.27587891 C-27.65483274 28.68010762 -29.61128805 26.21973554 -32 24 C-29.03 21.525 -29.03 21.525 -26 19 C-22.03159599 20.51472564 -20.38355169 22.87217833 -18 26.3125 C-15.43980717 29.97777607 -12.82733594 33.53525127 -10 37 C-5.59214242 36.12429445 -2.69289817 33.68803513 0.75 30.9375 C1.35199219 30.46505859 1.95398438 29.99261719 2.57421875 29.50585938 C4.05409943 28.34309599 5.52768096 27.1723234 7 26 C4.46768831 22.11938812 1.84571986 18.42676167 -1.0625 14.8125 C-1.73410156 13.97332031 -2.40570312 13.13414062 -3.09765625 12.26953125 C-4.66001975 10.40560272 -6.24437299 8.67905761 -8 7 C-6.76759083 3.3027725 -4.20634615 0 0 0 Z " fill="#F4F4F4" transform="translate(767,713)"/>
<path d="M0 0 C5.37412101 3.27521538 10.95351928 8.10148127 13.1171875 14.16796875 C14.6404464 21.93124438 14.98535836 29.94526834 11.0625 37 C6.76713452 43.08847795 1.00002759 47.97916126 -6.4375 49.4375 C-14.54748773 50.37573947 -20.71613414 49.17795225 -27.4375 44.4375 C-33.65991814 38.83615184 -37.44104916 32.73147142 -38 24.25 C-37.7615321 16.72270883 -34.75297953 9.77883122 -29.43359375 4.41796875 C-21.19041994 -2.01076832 -9.87916114 -4.51342068 0 0 Z M-31.4375 12 C-34.27413463 16.87546578 -34.28093782 20.92703959 -33.4375 26.4375 C-31.55664399 32.58240846 -26.80468427 36.24977955 -21.4375 39.4375 C-14.93655652 42.18789917 -6.83859623 42.75711556 -0.02734375 40.71484375 C4.92378916 38.4289936 8.09809261 35.36631479 10.5625 30.4375 C11.21855059 25.15683046 10.97385011 20.64049788 7.94921875 16.06640625 C2.46638878 9.62601161 -4.63557428 6.16838022 -12.94921875 5.12109375 C-20.7047165 4.75291545 -25.61661282 7.0279922 -31.4375 12 Z " fill="#EDEDED" transform="translate(817.4375,685.5625)"/>
<path d="M0 0 C0.93972656 0.21914063 1.87945313 0.43828125 2.84765625 0.6640625 C18.15186309 4.17229823 33.57814434 7.06446463 49 10 C48.66064453 11.89038086 48.66064453 11.89038086 48 14 C45.4296875 15.75390625 45.4296875 15.75390625 41.875 17.5625 C40.90518188 18.06088379 40.90518188 18.06088379 39.91577148 18.56933594 C31.78655908 22.70197491 23.52879785 26.58669727 15.28515625 30.484375 C10.8248744 32.59599826 6.40443377 34.77438294 2 37 C2 37.33 2 37.66 2 38 C6.26765345 38.85018422 10.53952961 39.67699165 14.8125 40.5 C16.00810547 40.73847656 17.20371094 40.97695313 18.43554688 41.22265625 C30.75452598 43.69206344 30.75452598 43.69206344 43 42 C42.67 44.31 42.34 46.62 42 49 C36.28471336 48.33809327 30.66336635 47.44244309 25.01171875 46.37109375 C23.31966187 46.05533635 21.62760456 45.73958121 19.93554688 45.42382812 C17.29763613 44.92852577 14.65989982 44.43230458 12.0222168 43.93579102 C9.45662409 43.45369008 6.89045004 42.97478183 4.32421875 42.49609375 C3.53359543 42.34611435 2.74297211 42.19613495 1.9283905 42.04161072 C-1.0932494 41.47853351 -3.91886229 41 -7 41 C-7.14091849 37.50404126 -6.98706356 34.36999823 -6 31 C-3.54861512 28.47317626 -0.67818372 27.2569882 2.5234375 25.8671875 C3.38055328 25.45961212 4.23766907 25.05203674 5.12075806 24.6321106 C7.85661211 23.34271568 10.61408396 22.10966548 13.375 20.875 C15.22556822 20.00863881 17.0745507 19.13888177 18.921875 18.265625 C22.30406104 16.68549357 25.68811626 15.11122591 29.09521484 13.58544922 C30.119944 13.12439285 30.119944 13.12439285 31.16537476 12.65402222 C33 12 33 12 36 12 C36 11.34 36 10.68 36 10 C34.84242188 10.0309375 33.68484375 10.061875 32.4921875 10.09375 C28.24833679 10.09375 24.26097709 9.39958898 20.125 8.5 C13.06274994 7.06896296 5.97812512 5.67395829 -1 8 C-0.67 5.36 -0.34 2.72 0 0 Z " fill="#F2F2F2" transform="translate(887,490)"/>
<path d="M0 0 C2.36231906 1.37344131 3.83554919 2.61279225 5.6875 4.5625 C5.02363281 4.51609375 4.35976563 4.4696875 3.67578125 4.421875 C-2.03851233 4.15853441 -2.03851233 4.15853441 -7.25 6.25 C-10.53504612 9.93323352 -12.19240565 12.1694056 -12.625 17.1875 C-12.57044931 20.69083537 -12.57044931 20.69083537 -10.3125 23.5625 C-6.06117726 24.18353646 -4.0545795 24.10076893 -0.5390625 21.55078125 C0.31945312 20.66777344 1.17796875 19.78476562 2.0625 18.875 C7.39156821 13.72137436 12.35989117 9.34146959 19.8125 8 C25.47264598 9.10741987 28.65852187 11.24329727 32.125 15.6875 C34.77015244 21.08131085 34.66923564 26.53133467 32.83984375 32.1796875 C30.0243863 38.4595892 26.18151483 42.51192288 20.6875 46.5625 C19.800625 47.243125 18.91375 47.92375 18 48.625 C15.6875 49.5625 15.6875 49.5625 13.34375 48.81640625 C10.66192672 47.55042791 8.31809295 46.1148474 5.875 44.4375 C5.08480469 43.89867187 4.29460938 43.35984375 3.48046875 42.8046875 C2.88878906 42.39476562 2.29710937 41.98484375 1.6875 41.5625 C3.1725 41.0675 3.1725 41.0675 4.6875 40.5625 C5.244375 40.871875 5.80125 41.18125 6.375 41.5 C10.51400405 43.40170457 14.56067297 43.17126571 18.84375 41.9453125 C23.68951646 39.90213485 26.04660891 37.43276918 28.0625 32.58203125 C28.96290839 29.67258665 29.22290515 27.57415398 28.6875 24.5625 C26.58685968 20.62379941 25.21835709 19.73060474 20.9375 18.375 C16.42805482 18.08272115 14.05667718 19.90894127 10.703125 22.734375 C9.70539062 23.63929688 9.70539062 23.63929688 8.6875 24.5625 C7.27143678 25.81318357 5.85477924 27.06319459 4.4375 28.3125 C3.81359375 28.88484375 3.1896875 29.4571875 2.546875 30.046875 C-1.23249623 33.12753895 -4.3947267 34.05327002 -9.34375 33.9609375 C-12.66747067 33.28827975 -14.26068657 31.11172275 -16.3125 28.5625 C-16.6425 28.2325 -16.9725 27.9025 -17.3125 27.5625 C-18.3072205 19.91952095 -17.54144642 14.16506814 -13.15625 7.7734375 C-6.01167723 -0.79399511 -6.01167723 -0.79399511 0 0 Z " fill="#F2F2F2" transform="translate(858.3125,605.4375)"/>
<path d="M0 0 C2.99488429 1.36131104 4.85332228 3.54422413 7.0625 5.9375 C6.546875 5.7725 6.03125 5.6075 5.5 5.4375 C0.67623965 4.4480107 -2.7540255 4.32300362 -7.1875 6.625 C-10.0117593 8.99994532 -11.51746343 10.54519042 -12.9375 13.9375 C-13.35475678 17.56349422 -13.35475678 17.56349422 -12.9375 20.9375 C-11.03128334 23.24613169 -11.03128334 23.24613169 -7.80078125 23.37109375 C-2.82424474 22.81255426 -0.09723345 20.89716131 3.875 18 C5.19367559 17.07374188 6.51267114 16.14793907 7.83203125 15.22265625 C8.89808594 14.46855469 9.96414063 13.71445312 11.0625 12.9375 C14.85871794 11.03939103 18.94899296 11.1890453 23.0625 11.9375 C27.26157206 14.48425428 30.49365908 17.23097723 32.0625 21.9375 C33.11210693 29.26975411 31.15490346 34.85587765 27.0625 40.9375 C23.00074589 45.64429695 17.18376962 49.57973225 11.0625 50.9375 C7.69001003 49.77549355 5.08517691 47.51433167 2.3125 45.3125 C1.51328125 44.68085937 0.7140625 44.04921875 -0.109375 43.3984375 C-0.71265625 42.91632812 -1.3159375 42.43421875 -1.9375 41.9375 C-0.9475 41.4425 -0.9475 41.4425 0.0625 40.9375 C1.609375 41.8965625 1.609375 41.8965625 3.1875 42.875 C7.09293613 45.17468863 10.60287131 46.03601148 15.0625 44.9375 C19.83725144 42.56542797 24.15455334 40.11621237 26.0625 34.9375 C26.71012258 30.66017875 26.77923359 27.11294309 24.5 23.375 C21.04548996 21.33772485 19.03412886 21.40794949 15.0625 21.9375 C9.56716069 23.93376612 4.80443821 27.33915382 0.04296875 30.66796875 C-3.89918338 33.19498935 -7.35234503 33.40378695 -11.9375 32.9375 C-14.91301795 31.16146702 -17.36505188 29.08239623 -18.9375 25.9375 C-19.79641216 20.0232763 -19.00108329 15.75207734 -15.56640625 10.859375 C-11.90910327 6.54428371 -6.15315385 -0.19848883 0 0 Z " fill="#F1F1F1" transform="translate(833.9375,644.0625)"/>
<path d="M0 0 C10.89 0 21.78 0 33 0 C33 2.31 33 4.62 33 7 C32.37738281 6.51917969 31.75476563 6.03835938 31.11328125 5.54296875 C26.81109219 3.41076714 22.92543806 3.43712951 18.1875 3.3125 C15.155625 3.209375 12.12375 3.10625 9 3 C9 10.59 9 18.18 9 26 C18.52175451 25.1890547 18.52175451 25.1890547 26 21 C26 24.96 26 28.92 26 33 C24.68 32.01 23.36 31.02 22 30 C17.99691834 29.3207206 14.06500111 29.22092397 10 29 C10 34.94 10 40.88 10 47 C13.02284948 46.93960341 16.04101909 46.85242308 19.0625 46.75 C19.91005859 46.73582031 20.75761719 46.72164062 21.63085938 46.70703125 C27.53731064 46.47898294 31.09917644 45.32484638 36 42 C36 44.64 36 47.28 36 50 C24.45 50 12.9 50 1 50 C1.0309375 43.4721875 1.0309375 43.4721875 1.0625 36.8125 C1.09105635 24.5054088 0.70725451 12.28854708 0 0 Z " fill="#F3F3F3" transform="translate(523,798)"/>
<path d="M0 0 C3.03599446 2.828746 5.28103894 6.15375174 7.625 9.5625 C8.26695312 10.45775391 8.90890625 11.35300781 9.5703125 12.27539062 C11.40129123 14.83613444 13.20240454 17.4157636 15 20 C15.98458717 21.38581714 16.97123601 22.77017443 17.9609375 24.15234375 C18.63382813 25.09207031 19.30671875 26.03179688 20 27 C21.32 26.34 22.64 25.68 24 25 C23.68950274 26.43793392 23.3765224 27.8753318 23.0625 29.3125 C22.80146484 30.51326172 22.80146484 30.51326172 22.53515625 31.73828125 C22 34 22 34 21 37 C17.99954009 36.67294475 16.41031313 36.40409969 14.2265625 34.25341797 C13.69804688 33.50721191 13.16953125 32.76100586 12.625 31.9921875 C12.03203125 31.16976562 11.4390625 30.34734375 10.828125 29.5 C10.22484375 28.63375 9.6215625 27.7675 9 26.875 C8.39671875 26.03195312 7.7934375 25.18890625 7.171875 24.3203125 C5.43518139 21.88894145 3.71666506 19.44553413 2 17 C0.33718405 14.66389018 -1.33152448 12.33207374 -3 10 C-2.43920716 14.48228552 -1.84730441 18.95994567 -1.25 23.4375 C-1.09273437 24.69755859 -0.93546875 25.95761719 -0.7734375 27.25585938 C0.75444894 39.12052666 0.75444894 39.12052666 7 49 C2.545 49.495 2.545 49.495 -2 50 C-2.14695312 48.26943359 -2.14695312 48.26943359 -2.296875 46.50390625 C-3.65804566 31.37209464 -5.10783585 15.72039189 -9 1 C-5.62311407 -0.68844297 -3.75214759 -0.64311657 0 0 Z " fill="#F5F5F5" transform="translate(572,797)"/>
<path d="M0 0 C4.91334771 1.46584992 9.8234344 2.93971687 14.71875 4.46484375 C25.71788683 7.86652136 36.7227631 10.68462527 48 13 C47.34 15.97 46.68 18.94 46 22 C39.4697241 20.61719588 33.09166115 18.93882232 26.6875 17.0625 C12.48393956 12.9344852 12.48393956 12.9344852 -2 10 C-1.125 2.25 -1.125 2.25 0 0 Z " fill="#F1F1F1" transform="translate(877,537)"/>
<path d="M0 0 C5.49432629 3.34847353 10.82623066 8.1229289 13.140625 14.26171875 C14.10727415 19.24712222 13.76755369 24.38710365 13.5625 29.4375 C12.5725 29.4375 11.5825 29.4375 10.5625 29.4375 C10.47613281 28.71304688 10.38976562 27.98859375 10.30078125 27.2421875 C9.38687825 20.95386414 8.52743533 16.78181842 3.5625 12.4375 C-4.30915298 7.75533364 -11.24376968 5.45591376 -20.4375 6.4375 C-26.47243995 8.26785441 -29.66733006 11.55845655 -33.4375 16.4375 C-34.0975 16.4375 -34.7575 16.4375 -35.4375 16.4375 C-34.98525862 11.46284487 -32.7793094 8.01625921 -29.4375 4.4375 C-21.14443967 -1.86716575 -9.90234694 -4.56131729 0 0 Z " fill="#F4F4F4" transform="translate(817.4375,685.5625)"/>
<path d="M0 0 C9.24 0 18.48 0 28 0 C25.03 4.455 25.03 4.455 22 9 C20.59904458 13.33865281 20.59904458 13.33865281 20 17 C16.43485124 15.46386447 13.96129644 13.3161548 11.125 10.6875 C8.258089 8.05384359 5.39744954 5.45394117 2.375 3 C1.59125 2.34 0.8075 1.68 0 1 C0 0.67 0 0.34 0 0 Z " fill="#0A0A0A" transform="translate(869,578)"/>
<path d="M0 0 C3.97007894 3.81040483 7.4230115 7.85673832 10.8125 12.1875 C11.31458984 12.81591797 11.81667969 13.44433594 12.33398438 14.09179688 C16 18.75536777 16 18.75536777 16 21 C15.443125 21.02578125 14.88625 21.0515625 14.3125 21.078125 C13.549375 21.13484375 12.78625 21.1915625 12 21.25 C11.2575 21.29640625 10.515 21.3428125 9.75 21.390625 C5.82903234 22.25947579 2.51818797 24.1034086 -1 26 C-1.0292483 22.79168609 -1.04688189 19.58340693 -1.0625 16.375 C-1.07087891 15.47136719 -1.07925781 14.56773437 -1.08789062 13.63671875 C-1.10491895 8.97095711 -0.96829423 4.58986715 0 0 Z " fill="#060606" transform="translate(638,789)"/>
<path d="M0 0 C0.33 0 0.66 0 1 0 C1.33 2.97 1.66 5.94 2 9 C2.33 9 2.66 9 3 9 C3.33 12.3 3.66 15.6 4 19 C5.60875 17.9790625 5.60875 17.9790625 7.25 16.9375 C10.6842887 14.98195935 10.6842887 14.98195935 13.1875 15.125 C15.1344751 16.06491901 17.0670885 17.03154331 19 18 C18.00419922 18.14695312 18.00419922 18.14695312 16.98828125 18.296875 C9.5903263 19.41646268 9.5903263 19.41646268 4 24 C3.10936196 27.36089827 2.64450899 30.53396263 3 34 C4.43990623 36.17032476 4.43990623 36.17032476 6 38 C6 38.66 6 39.32 6 40 C3.36 40.66 0.72 41.32 -2 42 C-1.34 28.14 -0.68 14.28 0 0 Z " fill="#DEDEDE" transform="translate(634,795)"/>
<path d="M0 0 C0.66 0 1.32 0 2 0 C2.44069176 2.3032078 2.88092985 4.60650075 3.32055664 6.90991211 C3.69109423 8.84972779 4.06268148 10.78934326 4.43530273 12.72875977 C5.37242723 17.62373544 6.26088785 22.51820495 7.0625 27.4375 C7.9483763 32.37645634 9.39377522 36.39377522 13 40 C8.545 40.495 8.545 40.495 4 41 C3.87882813 39.70707031 3.75765625 38.41414062 3.6328125 37.08203125 C2.51998224 25.38338894 2.51998224 25.38338894 0.875 13.75 C0.1035358 9.07902537 -0.1854166 4.72812324 0 0 Z " fill="#C9C9C9" transform="translate(566,806)"/>
<path d="M0 0 C1.0041394 0.18175781 1.0041394 0.18175781 2.02856445 0.3671875 C5.12154284 0.9212651 8.21691446 1.46068669 11.3125 2 C12.36501953 2.19078125 13.41753906 2.3815625 14.50195312 2.578125 C26.31267475 4.69691811 26.31267475 4.69691811 38 3 C37.67 5.31 37.34 7.62 37 10 C31.69722401 9.37841974 26.46371948 8.59382509 21.21875 7.58984375 C20.51979614 7.45808243 19.82084229 7.32632111 19.10070801 7.19056702 C16.90003042 6.77517356 14.7000124 6.35640052 12.5 5.9375 C10.99483425 5.65276957 9.48962626 5.36826239 7.984375 5.08398438 C4.32242545 4.39189897 0.66105875 3.6967842 -3 3 C-2.01 2.67 -1.02 2.34 0 2 C0 1.34 0 0.68 0 0 Z " fill="#E5E5E5" transform="translate(892,529)"/>
<path d="M0 0 C1.670625 0.38091797 1.670625 0.38091797 3.375 0.76953125 C13.54742192 3.06992907 23.73554104 5.1540755 34 7 C33.34 7.33 32.68 7.66 32 8 C32 8.66 32 9.32 32 10 C27.1191954 9.51992086 22.37141694 8.90339357 17.5625 7.9375 C11.38969487 6.77413026 5.03952661 5.98682446 -1 8 C-0.67 5.36 -0.34 2.72 0 0 Z " fill="#DCDCDC" transform="translate(887,490)"/>
<path d="M0 0 C0.66 0.66 1.32 1.32 2 2 C-2.01088534 8.2771986 -7.01822966 14.01255469 -14 17 C-17.73511287 16.06913075 -20.66048346 14.03907105 -23.8125 11.875 C-24.60269531 11.33617187 -25.39289062 10.79734375 -26.20703125 10.2421875 C-26.79871094 9.83226562 -27.39039063 9.42234375 -28 9 C-27.01 8.67 -26.02 8.34 -25 8 C-24.443125 8.309375 -23.88625 8.61875 -23.3125 8.9375 C-19.16173602 10.84460777 -15.06453816 10.68081918 -10.80859375 9.27734375 C-6.40089478 7.27236834 -4.16882586 5.45814205 -2 1 C-1.34 0.67 -0.68 0.34 0 0 Z " fill="#DEDEDE" transform="translate(888,638)"/>
<path d="M0 0 C0.33 0.66 0.66 1.32 1 2 C1.66 2 2.32 2 3 2 C3.33 3.98 3.66 5.96 4 8 C3.34 8 2.68 8 2 8 C1.74605469 8.76183594 1.49210938 9.52367187 1.23046875 10.30859375 C-0.84635417 16.5390625 -2.92317708 22.76953125 -5 29 C-5.99 29 -6.98 29 -8 29 C-9 27 -9 27 -8.28735352 24.29443359 C-7.90506592 23.17375488 -7.52277832 22.05307617 -7.12890625 20.8984375 C-6.71962891 19.68671875 -6.31035156 18.475 -5.88867188 17.2265625 C-5.44677503 15.9426531 -5.00471562 14.65879964 -4.5625 13.375 C-4.12366466 12.08356566 -3.68550491 10.79190154 -3.24804688 9.5 C-2.17200727 6.33100424 -1.08905457 3.16454188 0 0 Z " fill="#CFCFCF" transform="translate(602,795)"/>
<path d="M0 0 C3.35627599 4.0859012 5.54575018 8.79421479 7.86328125 13.51171875 C10.00192372 17.68082333 12.03816476 20.29435642 16 23 C10.25 26 10.25 26 8 26 C7.62875 24.7625 7.2575 23.525 6.875 22.25 C5.19826965 17.1058564 2.73150511 12.5167092 0.109375 7.796875 C-1.13859226 4.65059135 -0.9985625 3.18146656 0 0 Z " fill="#E7E7E7" transform="translate(678,793)"/>
<path d="M0 0 C0.33 0.99 0.66 1.98 1 3 C-3.58465876 7.42250041 -8.6415642 11.58962607 -15 13 C-18.37248997 11.83799355 -20.97732309 9.57683167 -23.75 7.375 C-24.54921875 6.74335937 -25.3484375 6.11171875 -26.171875 5.4609375 C-27.07679688 4.73777344 -27.07679688 4.73777344 -28 4 C-27.34 3.67 -26.68 3.34 -26 3 C-24.453125 3.9590625 -24.453125 3.9590625 -22.875 4.9375 C-19.71797066 6.78234842 -17.01874583 7.76061745 -13.265625 7.60546875 C-8.29214702 6.27634963 -4.12927827 2.97550934 0 0 Z " fill="#E7E7E7" transform="translate(860,682)"/>
<path d="M0 0 C0 2.64 0 5.28 0 8 C-6.93 8 -13.86 8 -21 8 C-21 7.67 -21 7.34 -21 7 C-22.65 6.67 -24.3 6.34 -26 6 C-26 5.67 -26 5.34 -26 5 C-24.69804688 4.97421875 -23.39609375 4.9484375 -22.0546875 4.921875 C-20.32809244 4.86557299 -18.60153124 4.80822613 -16.875 4.75 C-16.0190625 4.73582031 -15.163125 4.72164062 -14.28125 4.70703125 C-9.10106492 4.50779336 -3.94673903 0 0 0 Z " fill="#D4D4D4" transform="translate(559,840)"/>
<path d="M0 0 C2.85906384 1.47564585 4.77246051 3.65454056 6.9375 6 C6.421875 5.835 5.90625 5.67 5.375 5.5 C0.57831721 4.51606507 -2.8556273 4.36106739 -7.25 6.6875 C-9.97208595 8.92565956 -11.89913478 11.23984438 -14.0625 14 C-15.0525 14.33 -16.0425 14.66 -17.0625 15 C-15.3122555 8.58243682 -10.32793251 4.42144785 -4.875 1 C-2.0625 0 -2.0625 0 0 0 Z " fill="#E8E8E8" transform="translate(834.0625,644)"/>
<path d="M0 0 C10.89 0 21.78 0 33 0 C33 2.31 33 4.62 33 7 C32.30519531 6.51917969 31.61039063 6.03835938 30.89453125 5.54296875 C27.63629506 3.8061222 25.35210254 3.51385179 21.6875 3.3125 C20.08455078 3.21388672 20.08455078 3.21388672 18.44921875 3.11328125 C17.64097656 3.07589844 16.83273437 3.03851562 16 3 C16 2.67 16 2.34 16 2 C11.05 1.67 6.1 1.34 1 1 C0.67 1.66 0.34 2.32 0 3 C0 2.01 0 1.02 0 0 Z " fill="#D2D2D2" transform="translate(523,798)"/>
<path d="M0 0 C2.27274746 1.40693891 3.80266508 2.71740964 5.625 4.625 C4.96113281 4.57859375 4.29726563 4.5321875 3.61328125 4.484375 C-2.13627764 4.1987673 -2.13627764 4.1987673 -7.3125 6.4375 C-7.993125 7.159375 -8.67375 7.88125 -9.375 8.625 C-10.35665594 9.64301357 -11.35091432 10.6496803 -12.375 11.625 C-13.035 11.625 -13.695 11.625 -14.375 11.625 C-12.32755346 5.34108163 -7.01686596 -0.77965177 0 0 Z " fill="#DDDDDD" transform="translate(858.375,605.375)"/>
<path d="M0 0 C0.66 0 1.32 0 2 0 C1.67 2.31 1.34 4.62 1 7 C-4.23880078 6.44854729 -8.97350697 5.57077907 -14 4 C-14 3.34 -14 2.68 -14 2 C-13.07316406 1.93941406 -12.14632812 1.87882813 -11.19140625 1.81640625 C-9.39509766 1.69072266 -9.39509766 1.69072266 -7.5625 1.5625 C-5.77005859 1.44068359 -5.77005859 1.44068359 -3.94140625 1.31640625 C-1.11429756 1.32343886 -1.11429756 1.32343886 0 0 Z " fill="#E9E9E9" transform="translate(928,532)"/>
<path d="M0 0 C0.66 0 1.32 0 2 0 C3.51233701 6.46794133 4.21432579 12.35590042 4 19 C3.34 19 2.68 19 2 19 C0.3501993 15.70039859 0.61741639 12.00872116 0.4375 8.375 C0.39431641 7.57320312 0.35113281 6.77140625 0.30664062 5.9453125 C0.20048543 3.9637489 0.09973145 1.98189729 0 0 Z " fill="#E5E5E5" transform="translate(566,806)"/>
<path d="M0 0 C5.94 1.485 5.94 1.485 12 3 C9.82707291 5.17292709 8.96628992 5.41901583 6.0625 6.0625 C3.63370866 6.61181542 1.37120638 7.20959787 -1 8 C-0.67 5.36 -0.34 2.72 0 0 Z " fill="#E2E2E2" transform="translate(887,490)"/>
<path d="M0 0 C0.66 0.33 1.32 0.66 2 1 C-0.52371342 6.55216953 -5.20847864 9.514344 -10 13 C-10.66 12.34 -11.32 11.68 -12 11 C-8.19588166 7.08060535 -4.18423892 3.50897269 0 0 Z " fill="#E2E2E2" transform="translate(772,740)"/>
<path d="M0 0 C3.05001831 3.66002197 7 9.07851471 7 14 C6.01 14.33 5.02 14.66 4 15 C3.12855131 13.4470724 2.27846343 11.88214564 1.4375 10.3125 C0.72400391 9.00732422 0.72400391 9.00732422 -0.00390625 7.67578125 C-1.14268368 4.61671247 -0.92718689 3.08136961 0 0 Z " fill="#D8D8D8" transform="translate(678,793)"/>
<path d="M0 0 C0.99 0 1.98 0 3 0 C3.680625 1.423125 3.680625 1.423125 4.375 2.875 C5.80238254 6.00313679 5.80238254 6.00313679 8 8 C5.36 8.33 2.72 8.66 0 9 C0 6.03 0 3.06 0 0 Z " fill="#EEEEEE" transform="translate(571,838)"/>
<path d="M0 0 C0.33 0.66 0.66 1.32 1 2 C1.66 2 2.32 2 3 2 C3.33 3.98 3.66 5.96 4 8 C2.02 8 0.04 8 -2 8 C-1.34 5.36 -0.68 2.72 0 0 Z " fill="#BDBDBD" transform="translate(602,795)"/>
<path d="M0 0 C4.24822374 0.47202486 6.19989709 2.96655518 9 6 C5.7 5.34 2.4 4.68 -1 4 C-0.67 2.68 -0.34 1.36 0 0 Z " fill="#CECECE" transform="translate(832,644)"/>
<path d="M0 0 C2.64 0.33 5.28 0.66 8 1 C7.01 1.495 7.01 1.495 6 2 C6 2.66 6 3.32 6 4 C3.03 3.67 0.06 3.34 -3 3 C-2.01 2.67 -1.02 2.34 0 2 C0 1.34 0 0.68 0 0 Z " fill="#CECECE" transform="translate(892,529)"/>
<path d="M0 0 C2.97851562 0.53710938 2.97851562 0.53710938 5.95703125 1.07421875 C4.96703125 1.56921875 4.96703125 1.56921875 3.95703125 2.07421875 C3.95703125 2.73421875 3.95703125 3.39421875 3.95703125 4.07421875 C0.98703125 3.74421875 -1.98296875 3.41421875 -5.04296875 3.07421875 C-2.04296875 0.07421875 -2.04296875 0.07421875 0 0 Z " fill="#CCCCCC" transform="translate(910.04296875,531.92578125)"/>
<path d="M0 0 C0.33 0.66 0.66 1.32 1 2 C1.66 2 2.32 2 3 2 C2.67 3.98 2.34 5.96 2 8 C1.01 8 0.02 8 -1 8 C-2 6 -2 6 -1.0625 2.875 C-0.5365625 1.451875 -0.5365625 1.451875 0 0 Z " fill="#BABABA" transform="translate(595,816)"/>
<path d="M0 0 C1.8871875 0.061875 1.8871875 0.061875 3.8125 0.125 C2.8225 0.62 2.8225 0.62 1.8125 1.125 C1.8125 1.785 1.8125 2.445 1.8125 3.125 C-1.1575 2.795 -4.1275 2.465 -7.1875 2.125 C-4.09861478 0.06574319 -3.47814073 -0.1140374 0 0 Z " fill="#CECECE" transform="translate(917.1875,496.875)"/>
<path d="M0 0 C0.66 0.66 1.32 1.32 2 2 C1.34 3.65 0.68 5.3 0 7 C-0.99 6.67 -1.98 6.34 -3 6 C-2.625 3.5625 -2.625 3.5625 -2 1 C-1.34 0.67 -0.68 0.34 0 0 Z " fill="#D9D9D9" transform="translate(893,584)"/>
</svg>
