<?xml version="1.0" encoding="UTF-8"?>
<svg version="1.1" xmlns="http://www.w3.org/2000/svg" width="100" height="100">
<path d="M0 0 C1.83749565 -0.01925285 1.83749565 -0.01925285 3.71211243 -0.03889465 C5.05571082 -0.04706237 6.39931378 -0.05450604 7.74291992 -0.0612793 C8.41886389 -0.06535482 9.09480785 -0.06943035 9.79123497 -0.07362938 C13.36960927 -0.09448933 16.94794524 -0.10879078 20.52636719 -0.11816406 C24.21867292 -0.12922282 27.91037503 -0.16361566 31.60246754 -0.20333576 C34.44468794 -0.22950944 37.28676476 -0.23785654 40.12909508 -0.24144554 C41.48984538 -0.2463104 42.8505893 -0.25792176 44.21122169 -0.27648354 C46.11853089 -0.30088366 48.02613384 -0.29748929 49.93359375 -0.29296875 C51.01788162 -0.29883499 52.10216949 -0.30470123 53.21931458 -0.31074524 C56.86654226 0.29400752 58.52626077 1.63652802 61.16088867 4.17700195 C62.26077822 6.37678104 62.37908066 7.80746408 62.55541992 10.24731445 C62.62438477 11.06200195 62.69334961 11.87668945 62.7644043 12.71606445 C62.90177161 14.41582448 63.02966182 16.11638189 63.1472168 17.81762695 C63.6514873 23.51186735 64.79708961 28.44696232 68.16088867 33.17700195 C70.73848069 34.74769644 70.73848069 34.74769644 73.16088867 35.17700195 C73.16088867 37.15700195 73.16088867 39.13700195 73.16088867 41.17700195 C72.23276367 41.52762695 71.30463867 41.87825195 70.34838867 42.23950195 C66.46990894 44.59700924 65.39438544 46.97232292 64.16088867 51.17700195 C63.52569383 55.20423252 63.31299112 59.25845042 63.0769043 63.32543945 C62.67259212 68.454895 62.039754 71.45270242 58.16088867 75.17700195 C55.46421666 76.52533796 53.34117034 76.32653048 50.32177734 76.35400391 C48.48428169 76.37325676 48.48428169 76.37325676 46.60966492 76.39289856 C45.26606653 76.40106628 43.92246357 76.40850995 42.57885742 76.4152832 C41.90291346 76.41935873 41.22696949 76.42343426 40.53054237 76.42763329 C36.95216808 76.44849324 33.37383211 76.46279468 29.79541016 76.47216797 C26.10310442 76.48322673 22.41140231 76.51761956 18.71930981 76.55733967 C15.8770894 76.58351334 13.03501259 76.59186045 10.19268227 76.59544945 C8.83193197 76.60031431 7.47118804 76.61192567 6.11055565 76.63048744 C4.20324645 76.65488757 2.2956435 76.6514932 0.38818359 76.64697266 C-0.69610428 76.6528389 -1.78039215 76.65870514 -2.89753723 76.66474915 C-6.54476492 76.05999638 -8.20448343 74.71747588 -10.83911133 72.17700195 C-11.93900087 69.97722286 -12.05730332 68.54653983 -12.23364258 66.10668945 C-12.30260742 65.29200195 -12.37157227 64.47731445 -12.44262695 63.63793945 C-12.57999427 61.93817943 -12.70788448 60.23762201 -12.82543945 58.53637695 C-13.32970996 52.84213656 -14.47531226 47.90704159 -17.83911133 43.17700195 C-20.41670335 41.60630747 -20.41670335 41.60630747 -22.83911133 41.17700195 C-22.83911133 39.19700195 -22.83911133 37.21700195 -22.83911133 35.17700195 C-21.91098633 34.82637695 -20.98286133 34.47575195 -20.02661133 34.11450195 C-16.1481316 31.75699467 -15.07260809 29.38168098 -13.83911133 25.17700195 C-13.20391648 21.14977139 -12.99121378 17.09555349 -12.75512695 13.02856445 C-12.35081477 7.89910891 -11.71797666 4.90130149 -7.83911133 1.17700195 C-5.14243932 -0.17133405 -3.019393 0.02747343 0 0 Z " fill="#6C19FE" transform="translate(24.839111328125,11.822998046875)"/>
<path d="M0 0 C3.50625 -0.0825 7.0125 -0.165 10.625 -0.25 C11.71893066 -0.28641602 12.81286133 -0.32283203 13.93994141 -0.36035156 C19.97177867 -0.42895804 23.42128757 -0.03738682 28 4 C30.10857453 6.65863745 30.00023614 7.98701207 29.9375 11.4375 C28.83884218 15.61239971 27.25271203 17.24770521 24 20 C24.763125 20.4125 25.52625 20.825 26.3125 21.25 C29.03851364 23.02507865 30.45671377 24.15710431 32 27 C32.58282268 30.82997759 32.1502221 32.69354692 30.4375 36.1875 C28 39 28 39 21 42 C14.07 42 7.14 42 0 42 C0 28.14 0 14.28 0 0 Z " fill="#EFE4FD" transform="translate(35,29)"/>
<path d="M0 0 C2.0625 -0.04125 4.125 -0.0825 6.25 -0.125 C7.99023438 -0.15980469 7.99023438 -0.15980469 9.765625 -0.1953125 C12.85551065 -0.0087252 14.52314954 0.18364299 17 2 C18 5.375 18 5.375 18 9 C16.453125 11.2109375 16.453125 11.2109375 14 13 C10.546875 13.390625 10.546875 13.390625 6.75 13.25 C5.48671875 13.21390625 4.2234375 13.1778125 2.921875 13.140625 C1.47554687 13.07101563 1.47554687 13.07101563 0 13 C0 8.71 0 4.42 0 0 Z " fill="#6D1BFE" transform="translate(42,52)"/>
<path d="M0 0 C2.10353495 -0.0810206 4.20795952 -0.13919907 6.3125 -0.1875 C7.48425781 -0.22230469 8.65601563 -0.25710937 9.86328125 -0.29296875 C13 0 13 0 14.89453125 1.35546875 C16.47793508 3.71099176 16.41637778 5.22414816 16 8 C14.12139167 10.5048111 13.03898126 10.98700625 10 12 C8.27204648 12.06802967 6.54164635 12.08495645 4.8125 12.0625 C3.224375 12.041875 1.63625 12.02125 0 12 C0 8.04 0 4.08 0 0 Z " fill="#6E1CFE" transform="translate(42,35)"/>
</svg>
