<?xml version="1.0" encoding="UTF-8"?>
<svg version="1.1" xmlns="http://www.w3.org/2000/svg" width="100" height="100">
<path d="M0 0 C23.76 0 47.52 0 72 0 C70.76602618 17.27563354 69.48502575 34.51116079 67.875 51.75 C67.69114305 53.74216323 67.50754912 55.73435075 67.32421875 57.7265625 C66.88580966 62.48465737 66.44396322 67.2424203 66 72 C62.16467576 73.17765302 58.32368934 74.33437692 54.4765625 75.47290039 C53.17150447 75.86219327 51.86806192 76.25694862 50.56640625 76.6574707 C48.68414211 77.23557407 46.79520149 77.79179292 44.90625 78.34765625 C43.77509766 78.68804932 42.64394531 79.02844238 41.47851562 79.37915039 C33.1832137 80.85970575 25.38093106 77.81780514 17.5 75.4375 C16.39140625 75.10814453 15.2828125 74.77878906 14.140625 74.43945312 C11.42535856 73.63189543 8.71194685 72.81862271 6 72 C5.21506865 63.35087468 4.43254877 54.70153554 3.65309143 46.05191517 C3.29106835 42.03539723 2.92822066 38.01895737 2.56347656 34.00268555 C2.21139385 30.12549187 1.86149276 26.24810689 1.51309204 22.37058067 C1.37990714 20.892575 1.24594138 19.41463947 1.11117554 17.93677711 C0.92229865 15.86403856 0.7362202 13.79106614 0.55078125 11.71801758 C0.44419189 10.53887283 0.33760254 9.35972809 0.2277832 8.14485168 C0.03157507 5.43593605 0 2.71601207 0 0 Z " fill="#0277BD" transform="translate(14,10)"/>
<path d="M0 0 C12.54 0 25.08 0 38 0 C38 12.375 38 12.375 37.5625 18.63671875 C37.51810791 19.28703568 37.47371582 19.9373526 37.42797852 20.6073761 C37.28882317 22.63434547 37.14453141 24.66090767 37 26.6875 C36.90330103 28.08265844 36.80694467 29.47784066 36.7109375 30.87304688 C36.47731124 34.2489463 36.24025797 37.62456718 36 41 C18.99682283 47.21711263 18.99682283 47.21711263 11 44 C9.31352838 43.45513994 7.62602989 42.91344761 5.9375 42.375 C4.638125 41.92125 3.33875 41.4675 2 41 C2 37.04 2 33.08 2 29 C4.64 29 7.28 29 10 29 C10.061875 29.78375 10.12375 30.5675 10.1875 31.375 C10.74109682 34.14062254 10.74109682 34.14062254 13.0625 35.375 C17.92648031 36.40988943 22.28116043 35.57294652 27 34 C27.33 31.03 27.66 28.06 28 25 C22.06 25 16.12 25 10 25 C10 22.36 10 19.72 10 17 C16.27 17 22.54 17 29 17 C29 14.03 29 11.06 29 8 C19.76 8 10.52 8 1 8 C0.67 5.36 0.34 2.72 0 0 Z " fill="#FBFDFE" transform="translate(31,27)"/>
<path d="M0 0 C9.24 0 18.48 0 28 0 C28 8.25949065 27.88624585 16.16147471 27.125 24.33203125 C26.99182373 25.83596687 26.99182373 25.83596687 26.85595703 27.37028503 C26.57598551 30.51819641 26.28815033 33.6653279 26 36.8125 C25.80676663 38.96935407 25.61405404 41.12625486 25.421875 43.28320312 C24.95392009 48.52268928 24.47953765 53.76156191 24 59 C15.46875 62.26171875 15.46875 62.26171875 11.71875 63.16796875 C11.02265625 63.33876953 10.3265625 63.50957031 9.609375 63.68554688 C8.91328125 63.85119141 8.2171875 64.01683594 7.5 64.1875 C6.77296875 64.36474609 6.0459375 64.54199219 5.296875 64.72460938 C3.53231542 65.15414032 1.76630771 65.57771527 0 66 C0 62.7 0 59.4 0 56 C5.62077886 53.75168846 11.08076422 52.24506134 17 51 C16.97679688 49.79988281 16.95359375 48.59976563 16.9296875 47.36328125 C16.76624932 34.75300435 17.64407767 22.54228153 19 10 C12.73 10 6.46 10 0 10 C0 6.7 0 3.4 0 0 Z " fill="#059BE4" transform="translate(50,17)"/>
<path d="M0 0 C2.64 0 5.28 0 8 0 C8.33 1.65 8.66 3.3 9 5 C11.97 5.99 14.94 6.98 18 8 C17.67 10.97 17.34 13.94 17 17 C5.47835991 13.92482916 5.47835991 13.92482916 0 12 C0 8.04 0 4.08 0 0 Z " fill="#E3E8EB" transform="translate(33,56)"/>
<path d="M0 0 C12.54 0 25.08 0 38 0 C38 3.63 38 7.26 38 11 C37.67 11 37.34 11 37 11 C37 7.7 37 4.4 37 1 C31.06 1 25.12 1 19 1 C19 3.31 19 5.62 19 8 C13.06 8 7.12 8 1 8 C0.67 5.36 0.34 2.72 0 0 Z " fill="#E6ECEF" transform="translate(31,27)"/>
<path d="M0 0 C0.33 0.99 0.66 1.98 1 3 C10.24 3 19.48 3 29 3 C29 5.97 29 8.94 29 12 C22.73 12 16.46 12 10 12 C10 14.64 10 17.28 10 20 C9.67 20 9.34 20 9 20 C9 17.03 9 14.06 9 11 C12.3 11 15.6 11 19 11 C19 8.69 19 6.38 19 4 C12.73 4 6.46 4 0 4 C0 2.68 0 1.36 0 0 Z " fill="#2DA3DF" transform="translate(31,32)"/>
<path d="M0 0 C2.97 0 5.94 0 9 0 C9 2.97 9 5.94 9 9 C4.545 10.485 4.545 10.485 0 12 C0 8.04 0 4.08 0 0 Z " fill="#099DE5" transform="translate(50,52)"/>
<path d="M0 0 C2.97 0 5.94 0 9 0 C9 2.64 9 5.28 9 8 C6.03 8 3.06 8 0 8 C0 5.36 0 2.72 0 0 Z " fill="#EEEEEE" transform="translate(41,44)"/>
</svg>
