<?xml version="1.0" encoding="UTF-8"?>
<svg version="1.1" xmlns="http://www.w3.org/2000/svg" width="100" height="100">
<path d="M0 0 C4.96022598 1.75655709 9.04824574 4.54221503 13 8 C16.55038751 6.29231921 19.79398379 4.25801816 23.09765625 2.12109375 C27.18487963 -0.28759847 31.36932457 -0.62405587 36 0 C39.82906046 1.99777067 40.79431404 3.47643574 42.375 7.5 C43.51698826 13.15657736 43.61396459 20.77207083 41 26 C41.99 26.0928125 41.99 26.0928125 43 26.1875 C48.31384846 27.62666729 52.48743834 30.60088046 56.5 34.3125 C58.5264044 37.94314122 58.98680339 41.00724169 58 45 C54.91577546 50.5606092 49.94163942 53.96033274 44 56 C43.01 56 42.02 56 41 56 C41.23396484 56.80050781 41.23396484 56.80050781 41.47265625 57.6171875 C43.30821408 64.64336251 43.7067426 71.27619796 40.625 78 C39 80 39 80 36 82 C28.13501038 82.79982945 23.22370215 80.41777661 17 75.75 C16.34 75.1725 15.68 74.595 15 74 C11.44961249 75.70768079 8.20601621 77.74198184 4.90234375 79.87890625 C0.81906083 82.28527627 -3.37285607 82.63261733 -8 82 C-11.48364417 80.10671513 -12.69899455 78.6430571 -14.375 75.0625 C-15.69225094 69.42417353 -15.60256267 61.20512535 -13 56 C-13.99 55.9071875 -13.99 55.9071875 -15 55.8125 C-20.31384846 54.37333271 -24.48743834 51.39911954 -28.5 47.6875 C-30.5264044 44.05685878 -30.98680339 40.99275831 -30 37 C-26.91577546 31.4393908 -21.94163942 28.03966726 -16 26 C-15.01 26 -14.02 26 -13 26 C-13.350625 24.741875 -13.70125 23.48375 -14.0625 22.1875 C-15.52518055 15.5265159 -15.72727061 8.78592034 -12.0625 2.875 C-8.3646732 -0.48666073 -4.82986666 -0.61964897 0 0 Z " fill="#5E6B9C" transform="translate(36,9)"/>
<path d="M0 0 C0.72058594 -0.03287109 1.44117187 -0.06574219 2.18359375 -0.09960938 C5.95401817 -0.13779968 7.70157664 0.02897093 10.45703125 2.6875 C11.28267578 4.04875 11.28267578 4.04875 12.125 5.4375 C12.87716797 6.54931641 12.87716797 6.54931641 13.64453125 7.68359375 C15.59287955 10.98577924 17.06577472 13.50963727 17.3125 17.375 C15.44539836 22.19015687 12.82065808 27.74184192 9.125 31.4375 C-6.63023534 33.14337839 -6.63023534 33.14337839 -11.33203125 29.5703125 C-12.84815096 27.22896307 -13.90669629 25.04846178 -14.875 22.4375 C-15.431875 21.38175781 -15.431875 21.38175781 -16 20.3046875 C-17.41778816 17.27922883 -16.82301929 15.63706511 -15.875 12.4375 C-9.3511284 0.07447801 -9.3511284 0.07447801 0 0 Z " fill="#CCE7ED" transform="translate(49.875,33.5625)"/>
<path d="M0 0 C2.94816193 3.62446634 3.36605243 6.47262637 3.25 11.0625 C3.23453125 12.08472656 3.2190625 13.10695313 3.203125 14.16015625 C3.02965562 16.58539159 2.69034302 18.67844322 2 21 C-10.13273543 20.62511211 -10.13273543 20.62511211 -14.7109375 16.640625 C-16.64713099 14.16621166 -18.39593059 11.70001745 -20 9 C-14.51492795 3.19227666 -8.54556911 -2.6206412 0 0 Z " fill="#CDE8EE" transform="translate(72,13)"/>
<path d="M0 0 C1.01259619 3.36992013 1.16555609 6.48897481 1.1875 10 C1.20167969 11.03125 1.21585938 12.0625 1.23046875 13.125 C1.00041251 15.99485407 0.57370433 17.61459554 -1 20 C-4.17087015 21.58543507 -6.47990484 21.34065437 -10 21 C-12.86397846 19.59423768 -15.41188927 17.85668813 -18 16 C-18.99 15.34 -19.98 14.68 -21 14 C-20.01772751 9.07760078 -17.70876505 5.37430728 -14 2 C-9.37860181 0.20966306 -4.91668676 0 0 0 Z " fill="#CDE9EE" transform="translate(74,66)"/>
<path d="M0 0 C2.33333333 0.33333333 4.66666667 0.66666667 7 1 C8.7015625 0.9690625 8.7015625 0.9690625 10.4375 0.9375 C16.12950197 2.63511462 18.69343216 7.26774317 22 12 C17.40728763 17.01023168 12.79762353 21.0969689 5.75 21.5625 C2 21 2 21 0 19.1875 C-1.972266 12.90090213 -1.43058981 6.36843208 0 0 Z " fill="#CDE9EE" transform="translate(26,66)"/>
<path d="M0 0 C5.47390308 0.33575985 10.32000639 3.18803175 14.4375 6.6875 C15.3828125 8.6015625 15.3828125 8.6015625 15.4375 10.6875 C13.88012729 14.47430667 11.63711702 17.15653359 8.4375 19.6875 C3.78794127 21.01956312 -0.74029403 21.48016521 -5.5625 21.6875 C-6.7299281 15.21957171 -7.59537847 8.91524521 -5.5625 2.5625 C-3.5625 0.6875 -3.5625 0.6875 0 0 Z " fill="#CEEAEF" transform="translate(31.5625,12.3125)"/>
<path d="M0 0 C4.80558329 10.24297633 4.80558329 10.24297633 2.8125 15.9375 C2.21615764 17.29513048 1.61239028 18.64953235 1 20 C0.63915768 21.32615297 0.29718877 22.65814765 0 24 C-5.41814712 22.44184004 -9.85502827 21.01544136 -14 17 C-15.639025 13.72195 -15.54326779 11.62178526 -15 8 C-11.13896593 3.95554388 -5.69702319 0 0 0 Z " fill="#CDE8EE" transform="translate(25,38)"/>
<path d="M0 0 C3.92297846 0.56340648 6.49080356 1.70090379 9.75 3.9375 C10.52859375 4.46214844 11.3071875 4.98679687 12.109375 5.52734375 C14.67533362 7.52603466 14.94421204 8.58159033 15.375 11.8125 C14.86119886 16.17980965 13.41884671 17.29341302 10 20 C3.18566775 24 3.18566775 24 0 24 C-2.72867955 18.28173131 -4.75186164 13.76136758 -2.8125 7.5 C-2.23610551 5.98911061 -1.6353329 4.4870674 -1 3 C-0.67 2.01 -0.34 1.02 0 0 Z " fill="#CDE9EE" transform="translate(75,38)"/>
<path d="M0 0 C3.55247432 0.87379409 4.94828114 2.4927342 6.9375 5.4765625 C7.63597125 8.3162489 7.63597125 10.6368761 6.9375 13.4765625 C4.94828114 16.4603908 3.55247432 18.07933091 0 18.953125 C-3.92313492 19.23547183 -5.73362371 18.69581336 -9.0625 16.4765625 C-11.28175086 13.14768621 -11.82140933 11.33719742 -11.5390625 7.4140625 C-10.07519871 1.46261629 -5.59135555 -0.40240816 0 0 Z " fill="#5E6E9D" transform="translate(52.0625,40.5234375)"/>
<path d="M0 0 C1.875 1.125 1.875 1.125 3 3 C3.39365568 6.14924548 3.52854531 8.11909116 1.875 10.875 C-0.88090884 12.52854531 -2.85075452 12.39365568 -6 12 C-7.875 10.875 -7.875 10.875 -9 9 C-9.39365568 5.85075452 -9.52854531 3.88090884 -7.875 1.125 C-5.11909116 -0.52854531 -3.14924548 -0.39365568 0 0 Z " fill="#66BADF" transform="translate(53,44)"/>
<path d="M0 0 C2.31 0 4.62 0 7 0 C8.46726798 3.81489674 7.43336419 6.29011622 6 10 C3.38275905 7.63202009 1.67138271 5.10399646 0 2 C0 1.34 0 0.68 0 0 Z " fill="#C7E2EA" transform="translate(64,36)"/>
<path d="M0 0 C2.12508244 3.18762365 2.5020163 5.26512223 3 9 C0.36 9.33 -2.28 9.66 -5 10 C-3.66511872 6.40608886 -2.03977277 3.24509304 0 0 Z " fill="#C9E4EB" transform="translate(69,54)"/>
<path d="M0 0 C2.61724095 2.36797991 4.32861729 4.89600354 6 8 C6 8.66 6 9.32 6 10 C3.36 9.67 0.72 9.34 -2 9 C-1.51421457 5.87709365 -1.0013988 3.00419641 0 0 Z " fill="#C9E4EB" transform="translate(30,54)"/>
<path d="M0 0 C1.134375 0.020625 2.26875 0.04125 3.4375 0.0625 C2.10261872 3.65641114 0.47727277 6.81740696 -1.5625 10.0625 C-3.69512124 6.86356814 -4.15271548 4.83251757 -4.5625 1.0625 C-3.5625 0.0625 -3.5625 0.0625 0 0 Z " fill="#C9E4EB" transform="translate(32.5625,35.9375)"/>
<path d="M0 0 C3.41158256 1.13719419 4.11854601 2.04342944 6 5 C6 5.66 6 6.32 6 7 C2.7 7 -0.6 7 -4 7 C-2 3 -2 3 0 0 Z " fill="#CAE6EC" transform="translate(49,24)"/>
<path d="M0 0 C3.3 0 6.6 0 10 0 C8 4 8 4 6 7 C5.34 7 4.68 7 4 7 C0 2.52941176 0 2.52941176 0 0 Z " fill="#CCE7ED" transform="translate(45,69)"/>
</svg>
